<?xml version="1.0" encoding="UTF-8" standalone="no"?>
<svg
   viewBox="0 0 400 400"
   width="400"
   height="400"
   version="1.1"
   id="svg3331"
   sodipodi:docname="circuit-board.svg"
   inkscape:version="1.2 (dc2aedaf03, 2022-05-15)"
   xmlns:inkscape="http://www.inkscape.org/namespaces/inkscape"
   xmlns:sodipodi="http://sodipodi.sourceforge.net/DTD/sodipodi-0.dtd"
   xmlns="http://www.w3.org/2000/svg"
   xmlns:svg="http://www.w3.org/2000/svg">
  <defs
     id="defs3335" />
  <sodipodi:namedview
     id="namedview3333"
     pagecolor="#505050"
     bordercolor="#eeeeee"
     borderopacity="1"
     inkscape:showpageshadow="0"
     inkscape:pageopacity="0"
     inkscape:pagecheckerboard="0"
     inkscape:deskcolor="#505050"
     showgrid="false"
     inkscape:zoom="0.87664474"
     inkscape:cx="143.72983"
     inkscape:cy="254.94934"
     inkscape:window-width="1366"
     inkscape:window-height="699"
     inkscape:window-x="0"
     inkscape:window-y="0"
     inkscape:window-maximized="1"
     inkscape:current-layer="svg3331" />
  <path
     fill="#000"
     d="m 58.026316,294.73684 a 6.5789474,6.5789474 0 1 1 0,2.63158 H 0 v -2.63158 z m 210.526314,63.1579 a 6.5789474,6.5789474 0 1 1 0,2.63158 H 107.89474 v -2.63158 z m 76.05263,-60.52632 a 6.5789474,6.5789474 0 1 1 0,-2.63158 H 400 v 2.63158 z m 0,21.05263 a 6.5789474,6.5789474 0 1 1 0,-2.63158 H 400 v 2.63158 z m 8.1579,-150 a 6.5789474,6.5789474 0 1 1 0,2.63158 H 239.34211 a 6.5789474,6.5789474 0 1 1 0,-2.63158 z M 15.921053,105.26316 a 6.5789474,6.5789474 0 1 1 0,2.63158 H 0 v -2.63158 z M 260.39474,150 a 6.5789474,6.5789474 0 1 1 0,-2.63158 h 113.42105 a 6.5789474,6.5789474 0 1 1 0,2.63158 z M 339.47368,15.921053 a 6.5789474,6.5789474 0 1 1 -2.63157,0 V 0 h 2.63157 z M 255.26316,289.60526 a 6.5789474,6.5789474 0 1 1 -2.63158,0 v -71.31579 a 6.5789474,6.5789474 0 1 1 2.63158,0 z M 318.42105,28.815789 V 105.26316 H 400 v 2.63158 H 315.78947 V 28.815789 a 6.5789474,6.5789474 0 1 1 2.63158,0 z m 21.05263,21.052632 V 84.210526 H 400 v 2.631579 H 336.84211 V 49.868421 a 6.5789474,6.5789474 0 1 1 2.63157,0 z M 171.05263,176.18421 v 97.5 h 21.05263 v 15.92105 a 6.5789474,6.5789474 0 1 1 -2.63158,0 V 276.31579 H 168.42105 V 176.18421 a 6.5789474,6.5789474 0 1 1 2.63158,0 z m -7.76316,-28.81579 a 6.5789474,6.5789474 0 1 1 0,2.63158 H 150 v 63.15789 h -36.97368 a 6.5789474,6.5789474 0 1 1 0,-2.63157 h 34.3421 v -63.1579 z m -8.15789,171.05263 a 6.5789474,6.5789474 0 1 1 0,-2.63158 h 76.44737 v -97.5 a 6.5789474,6.5789474 0 1 1 2.63158,0 v 100.13158 z m -21.05263,-84.21052 a 6.5789474,6.5789474 0 1 1 0,-2.63158 H 150 v 63.15789 h 13.28947 a 6.5789474,6.5789474 0 1 1 0,2.63158 H 147.36842 V 234.21053 Z M 86.842105,373.81579 a 6.5789474,6.5789474 0 1 1 -2.631579,0 V 360.52632 H 65.789474 V 400 h -2.631579 v -42.10526 h 23.68421 z M 310.65789,231.57895 a 6.5789474,6.5789474 0 1 1 0,2.63158 h -13.28947 v 123.68421 h 63.1579 V 400 h -2.63158 v -39.47368 h -63.1579 V 231.57895 Z m 33.94737,-39.47369 a 6.5789474,6.5789474 0 1 1 0,-2.63158 h 15.92106 V 247.5 a 6.5789474,6.5789474 0 1 1 -2.63158,0 v -55.39474 z m -84.21052,126.31579 a 6.5789474,6.5789474 0 1 1 0,-2.63158 h 13.28947 V 210.52632 h 21.05263 v -18.42106 h -55.39473 a 6.5789474,6.5789474 0 1 1 0,-2.63158 h 58.02631 v 23.68421 H 276.31579 V 318.42105 Z M 373.81579,42.105263 a 6.5789474,6.5789474 0 1 1 0,2.631579 H 357.89474 V 0 h 2.63158 V 42.105263 Z M 128.94737,134.07895 v 58.02631 H 70.921053 a 6.5789474,6.5789474 0 1 1 0,-2.63158 h 55.394737 v -55.39473 a 6.5789474,6.5789474 0 1 1 2.63158,0 z M 70.921053,44.736842 a 6.5789474,6.5789474 0 1 1 0,-2.631579 H 105.26316 V 0 h 2.63158 V 44.736842 Z M 150,49.868421 V 86.842105 H 107.89474 V 171.05263 H 91.973684 a 6.5789474,6.5789474 0 1 1 0,-2.63158 H 105.26316 V 84.210526 h 42.10526 V 49.868421 a 6.5789474,6.5789474 0 1 1 2.63158,0 z m -15.92105,58.026319 a 6.5789474,6.5789474 0 1 1 0,-2.63158 h 34.3421 V 49.868421 a 6.5789474,6.5789474 0 1 1 2.63158,0 v 58.026319 z m 21.05263,-84.210529 a 6.5789474,6.5789474 0 1 1 0,-2.631579 h 36.97368 v 58.026315 a 6.5789474,6.5789474 0 1 1 -2.63158,0 V 23.684211 Z M 289.60526,378.94737 a 6.5789474,6.5789474 0 1 1 0,2.63158 H 128.94737 V 400 h -2.63158 v -21.05263 z m 28.81579,-181.71053 v 13.28948 h 21.05263 v 44.73684 h -21.05263 v 81.57895 h 63.1579 V 400 h -2.63158 v -60.52632 h -63.1579 v -86.8421 h 21.05264 v -39.47369 h -21.05264 v -15.92105 a 6.5789474,6.5789474 0 1 1 2.63158,0 z M 70.921053,23.684211 a 6.5789474,6.5789474 0 1 1 0,-2.631579 H 84.210526 V 2.6315789 H 63.157895 V 0 h 23.68421 V 23.684211 Z M 218.28947,65.789474 a 6.5789474,6.5789474 0 1 1 0,-2.631579 h 34.34211 V 0 h 65.78947 V 2.6315789 H 255.26316 V 65.789474 Z M 155.13158,2.6315789 A 6.5802646,6.5802646 0 0 1 142.23684,0 h 2.72369 a 3.9473684,3.9473684 0 1 0 7.44736,0 h 81.80264 V 44.736842 H 210.52632 V 28.815789 a 6.5789474,6.5789474 0 1 1 2.63157,0 v 13.289474 h 18.42106 V 2.6315789 Z m 0,126.3157911 a 6.5789474,6.5789474 0 1 1 0,-2.63158 h 25.13158 l 42.10526,-42.105264 h 51.31579 V 28.815789 a 6.5789474,6.5789474 0 1 1 2.63158,0 V 86.842105 H 223.46053 L 181.35526,128.94737 Z M 192.10526,247.5 a 6.5789474,6.5789474 0 1 1 -2.63158,0 V 146.82895 l 41.56579,-41.56579 h 63.69737 V 28.815789 a 6.5789474,6.5789474 0 1 1 2.63158,0 v 79.078951 h -65.25 l -40.01316,40.01315 z m 21.05263,42.10526 a 6.5789474,6.5789474 0 1 1 -2.63157,0 V 158.67105 l 32.35526,-32.35526 H 394.86842 A 6.5789474,6.5789474 0 0 1 400,121.18421 v 2.72368 a 3.9473684,3.9473684 0 0 0 0,7.44737 v 2.72369 a 6.5789474,6.5789474 0 0 1 -5.13158,-5.13158 H 243.96053 L 213.15789,159.75 Z M 23.684211,205.39474 a 6.5789474,6.5789474 0 1 1 -2.631579,0 v -4.61842 l 63.157894,-63.1579 V 63.157895 H 126.31579 V 0 h 2.63158 V 65.789474 H 86.842105 V 138.69737 L 23.684211,201.85526 Z M 65.789474,70.921053 v 57.249997 l -63.1578951,63.1579 v 82.35526 H 36.973684 a 6.5789474,6.5789474 0 1 1 0,2.63158 H 0 V 190.25 L 63.157895,127.09211 V 70.921053 a 6.5789474,6.5789474 0 1 1 2.631579,0 z M 44.736842,91.973684 V 117.64474 L 0,162.38158 v -3.71053 L 42.105263,116.56579 V 91.973684 a 6.5789474,6.5789474 0 1 1 2.631579,0 z M 15.921053,42.105263 a 6.5789474,6.5789474 0 1 1 0,2.631579 H 12.381579 L 0,57.118421 V 53.421053 L 11.302632,42.105263 Z M 365.65789,65.789474 a 6.5789474,6.5789474 0 1 1 0,-2.631579 H 390.25 l 9.75,-9.75 v 3.710526 l -8.67105,8.671053 z M 344.60526,276.31579 a 6.5789474,6.5789474 0 1 1 0,-2.63158 h 34.34211 V 179.72368 L 400,158.67105 v 3.71053 l -18.42105,18.42105 v 95.51316 z M 70.921053,318.42105 a 6.5789474,6.5789474 0 1 1 0,-2.63158 H 84.210526 V 286.06579 L 53.407895,255.26316 H 28.815789 a 6.5789474,6.5789474 0 1 1 0,-2.63158 h 25.671053 l 32.355263,32.35526 v 33.43421 z m 197.631577,18.42106 a 6.5789474,6.5789474 0 1 1 0,2.63157 H 126.31579 V 265 L 74.473684,213.15789 H 49.868421 a 6.5789474,6.5789474 0 1 1 0,-2.63157 h 25.657895 l 53.421054,53.42105 v 72.89474 z m -197.631577,2.63157 a 6.5789474,6.5789474 0 1 1 0,-2.63157 H 105.26316 V 275.53947 L 63.934211,234.21053 H 28.815789 a 6.5789474,6.5789474 0 1 1 0,-2.63158 h 36.197369 l 42.881582,42.88158 v 65.01315 z M 44.736842,52.368421 v 2.118421 L 12.381579,86.842105 H 0 V 84.210526 H 11.302632 L 42.105263,53.407895 V 0 h 2.631579 z M 2.6315789,394.86842 A 6.5789474,6.5789474 0 0 1 7.7631579,400 H 5.0394737 A 3.9473684,3.9473684 0 0 0 0,397.59211 v -60.75 H 23.684211 V 400 H 21.052632 V 339.47368 H 2.6315789 Z M 44.736842,317.10526 V 400 H 42.105263 V 318.42105 H 0 v -2.63158 H 44.736842 Z M 22.368421,23.684211 H 0 V 21.052632 H 21.052632 V 0 h 2.631579 V 23.684211 Z M 381.57895,21.052632 H 400 v 2.631579 H 378.94737 V 0 h 2.63158 z M 339.47368,380.26316 V 400 h -2.63157 V 381.57895 H 318.42105 V 400 h -2.63158 v -21.05263 h 23.68421 z M 0,121.18421 A 6.6052632,6.6052632 0 0 1 7.8947368,127.63158 6.5789474,6.5789474 0 0 1 0,134.07895 v -2.72369 a 3.9473684,3.9473684 0 1 0 0,-7.44737 z m 105.26316,236.71053 h 2.63158 V 400 h -2.63158 z M 155.13158,400 h -2.72369 a 3.9473684,3.9473684 0 0 0 -7.44736,0 h -2.72369 a 6.5789474,6.5789474 0 0 1 12.89474,0 z M 7.7631579,0 A 6.6052632,6.6052632 0 0 1 0,7.7631579 V 5.0394737 A 3.9473684,3.9473684 0 0 0 5.0394737,0 Z M 394.86842,0 h 2.72369 A 3.9473684,3.9473684 0 0 0 400,5.0394737 V 7.7631579 A 6.5789474,6.5789474 0 0 1 394.86842,0 Z M 400,394.86842 v 2.72369 A 3.9473684,3.9473684 0 0 0 397.59211,400 h -2.72369 A 6.5789474,6.5789474 0 0 1 400,394.86842 Z M 127.63158,131.57895 a 3.94737,3.94737 0 1 0 0,-7.89474 3.94737,3.94737 0 0 0 0,7.89474 z m 0,-21.05263 a 3.94737,3.94737 0 1 0 0,-7.89474 3.94737,3.94737 0 0 0 0,7.89474 z m 21.05263,21.05263 a 3.94737,3.94737 0 1 0 0,-7.89474 3.94737,3.94737 0 0 0 0,7.89474 z m 21.05263,21.05263 a 3.94737,3.94737 0 1 0 0,-7.89474 3.94737,3.94737 0 0 0 0,7.89474 z m 0,21.05263 a 3.94737,3.94737 0 1 0 0,-7.89474 3.94737,3.94737 0 0 0 0,7.89474 z m -63.15789,42.10526 a 3.9473684,3.9473684 0 1 0 0,-7.89473 3.9473684,3.9473684 0 0 0 0,7.89473 z m 21.05263,21.05264 a 3.94737,3.94737 0 1 0 0,-7.89474 3.94737,3.94737 0 0 0 0,7.89474 z M 169.73684,300 a 3.94737,3.94737 0 1 0 0,-7.89474 3.94737,3.94737 0 0 0 0,7.89474 z m -21.05263,21.05263 a 3.94737,3.94737 0 1 0 0,-7.89474 3.94737,3.94737 0 0 0 0,7.89474 z M 190.78947,300 a 3.94737,3.94737 0 1 0 0,-7.89474 3.94737,3.94737 0 0 0 0,7.89474 z m 0,-42.10526 a 3.94737,3.94737 0 1 0 0,-7.89474 3.94737,3.94737 0 0 0 0,7.89474 z M 211.84211,300 a 3.94737,3.94737 0 1 0 0,-7.89474 3.94737,3.94737 0 0 0 0,7.89474 z m 42.10526,21.05263 a 3.94737,3.94737 0 1 0 0,-7.89474 3.94737,3.94737 0 0 0 0,7.89474 z m 0,-21.05263 a 3.94737,3.94737 0 1 0 0,-7.89474 3.94737,3.94737 0 0 0 0,7.89474 z m -21.05263,-84.21053 a 3.9473684,3.9473684 0 1 0 0,-7.89473 3.9473684,3.9473684 0 0 0 0,7.89473 z m 21.05263,0 a 3.9473684,3.9473684 0 1 0 0,-7.89473 3.9473684,3.9473684 0 0 0 0,7.89473 z M 275,342.10526 a 3.9473684,3.9473684 0 1 0 0,-7.89473 3.9473684,3.9473684 0 0 0 0,7.89473 z m 0,21.05263 a 3.9473684,3.9473684 0 1 0 0,-7.89473 3.9473684,3.9473684 0 0 0 0,7.89473 z m 21.05263,21.05264 a 3.94737,3.94737 0 1 0 0,-7.89474 3.94737,3.94737 0 0 0 0,7.89474 z m 21.05263,-189.47369 a 3.9473684,3.9473684 0 1 0 0,-7.89473 3.9473684,3.9473684 0 0 0 0,7.89473 z m 0,42.10527 a 3.94737,3.94737 0 1 0 0,-7.89474 3.94737,3.94737 0 0 0 0,7.89474 z m 21.05263,-42.10527 a 3.9473684,3.9473684 0 1 0 0,-7.89473 3.9473684,3.9473684 0 0 0 0,7.89473 z m 21.05264,-21.05263 a 3.94737,3.94737 0 1 0 0,-7.89474 3.94737,3.94737 0 0 0 0,7.89474 z m -126.31579,0 a 3.94737,3.94737 0 1 0 0,-7.89474 3.94737,3.94737 0 0 0 0,7.89474 z m 0,21.05263 a 3.9473684,3.9473684 0 1 0 0,-7.89473 3.9473684,3.9473684 0 0 0 0,7.89473 z m 21.05263,-42.10526 a 3.94737,3.94737 0 1 0 0,-7.89474 3.94737,3.94737 0 0 0 0,7.89474 z m 126.31579,0 a 3.94737,3.94737 0 1 0 0,-7.89474 3.94737,3.94737 0 0 0 0,7.89474 z M 359.21053,68.421053 a 3.9473685,3.9473685 0 1 0 0,-7.894737 3.9473685,3.9473685 0 0 0 0,7.894737 z m 21.05263,-21.052632 a 3.9473685,3.9473685 0 1 0 0,-7.894737 3.9473685,3.9473685 0 0 0 0,7.894737 z m -42.10527,0 a 3.9473685,3.9473685 0 1 0 0,-7.894737 3.9473685,3.9473685 0 0 0 0,7.894737 z m 0,-21.052632 a 3.9473684,3.9473684 0 1 0 0,-7.894736 3.9473684,3.9473684 0 0 0 0,7.894736 z m -21.05263,0 a 3.9473684,3.9473684 0 1 0 0,-7.894736 3.9473684,3.9473684 0 0 0 0,7.894736 z m -21.05263,0 a 3.9473684,3.9473684 0 1 0 0,-7.894736 3.9473684,3.9473684 0 0 0 0,7.894736 z m -21.05263,0 a 3.9473684,3.9473684 0 1 0 0,-7.894736 3.9473684,3.9473684 0 0 0 0,7.894736 z M 64.473684,47.368421 a 3.9473685,3.9473685 0 1 0 0,-7.894737 3.9473685,3.9473685 0 0 0 0,7.894737 z m -42.105263,0 a 3.9473685,3.9473685 0 1 0 0,-7.894737 3.9473685,3.9473685 0 0 0 0,7.894737 z m 42.105263,21.052632 a 3.9473685,3.9473685 0 1 0 0,-7.894737 3.9473685,3.9473685 0 0 0 0,7.894737 z M 43.421053,89.473684 a 3.9473685,3.9473685 0 1 0 0,-7.894737 3.9473685,3.9473685 0 0 0 0,7.894737 z M 64.473684,26.315789 a 3.9473684,3.9473684 0 1 0 0,-7.894736 3.9473684,3.9473684 0 0 0 0,7.894736 z m 0,315.789471 a 3.9473684,3.9473684 0 1 0 0,-7.89473 3.9473684,3.9473684 0 0 0 0,7.89473 z m 21.052632,42.10527 a 3.94737,3.94737 0 1 0 0,-7.89474 3.94737,3.94737 0 0 0 0,7.89474 z M 64.473684,300 a 3.94737,3.94737 0 1 0 0,-7.89474 3.94737,3.94737 0 0 0 0,7.89474 z m 0,21.05263 a 3.94737,3.94737 0 1 0 0,-7.89474 3.94737,3.94737 0 0 0 0,7.89474 z M 43.421053,278.94737 a 3.94737,3.94737 0 1 0 0,-7.89474 3.94737,3.94737 0 0 0 0,7.89474 z M 148.68421,47.368421 a 3.9473685,3.9473685 0 1 0 0,-7.894737 3.9473685,3.9473685 0 0 0 0,7.894737 z m 21.05263,0 a 3.9473685,3.9473685 0 1 0 0,-7.894737 3.9473685,3.9473685 0 0 0 0,7.894737 z M 148.68421,26.315789 a 3.9473684,3.9473684 0 1 0 0,-7.894736 3.9473684,3.9473684 0 0 0 0,7.894736 z m 42.10526,63.157895 a 3.9473685,3.9473685 0 1 0 0,-7.894737 3.9473685,3.9473685 0 0 0 0,7.894737 z m 21.05264,-21.052631 a 3.9473685,3.9473685 0 1 0 0,-7.894737 3.9473685,3.9473685 0 0 0 0,7.894737 z m 0,-42.105264 a 3.9473684,3.9473684 0 1 0 0,-7.894736 3.9473684,3.9473684 0 0 0 0,7.894736 z M 359.21053,257.89474 a 3.94737,3.94737 0 1 0 0,-7.89474 3.94737,3.94737 0 0 0 0,7.89474 z m -21.05264,21.05263 a 3.94737,3.94737 0 1 0 0,-7.89474 3.94737,3.94737 0 0 0 0,7.89474 z m 0,21.05263 a 3.94737,3.94737 0 1 0 0,-7.89474 3.94737,3.94737 0 0 0 0,7.89474 z m 0,21.05263 a 3.94737,3.94737 0 1 0 0,-7.89474 3.94737,3.94737 0 0 0 0,7.89474 z M 22.368421,236.84211 a 3.94737,3.94737 0 1 0 0,-7.89474 3.94737,3.94737 0 0 0 0,7.89474 z m 0,21.05263 a 3.94737,3.94737 0 1 0 0,-7.89474 3.94737,3.94737 0 0 0 0,7.89474 z m 0,-42.10527 a 3.9473684,3.9473684 0 1 0 0,-7.89473 3.9473684,3.9473684 0 0 0 0,7.89473 z m 21.052632,0 a 3.9473684,3.9473684 0 1 0 0,-7.89473 3.9473684,3.9473684 0 0 0 0,7.89473 z M 22.368421,110.52632 a 3.94737,3.94737 0 1 0 0,-7.89474 3.94737,3.94737 0 0 0 0,7.89474 z m 42.105263,84.21052 a 3.9473684,3.9473684 0 1 0 0,-7.89473 3.9473684,3.9473684 0 0 0 0,7.89473 z m 21.052632,-21.05263 a 3.94737,3.94737 0 1 0 0,-7.89474 3.94737,3.94737 0 0 0 0,7.89474 z"
     id="path3329"
     style="fill:#f2cda8;fill-opacity:0.24955949;stroke-width:0;stroke-dasharray:none;stroke:#000000;stroke-opacity:1" />
</svg>
