<?xml version="1.0" encoding="UTF-8" standalone="no"?>
<svg
   height="45"
   viewBox="5.88 9.87 9.7459269 5.4759876"
   width="83.727898"
   version="1.1"
   id="svg16"
   sodipodi:docname="daviplata-logo.svg"
   inkscape:version="1.2 (dc2aedaf03, 2022-05-15)"
   xmlns:inkscape="http://www.inkscape.org/namespaces/inkscape"
   xmlns:sodipodi="http://sodipodi.sourceforge.net/DTD/sodipodi-0.dtd"
   xmlns="http://www.w3.org/2000/svg"
   xmlns:svg="http://www.w3.org/2000/svg">
  <defs
     id="defs20" />
  <sodipodi:namedview
     id="namedview18"
     pagecolor="#505050"
     bordercolor="#eeeeee"
     borderopacity="1"
     inkscape:showpageshadow="0"
     inkscape:pageopacity="0"
     inkscape:pagecheckerboard="0"
     inkscape:deskcolor="#505050"
     showgrid="false"
     inkscape:zoom="9.3419156"
     inkscape:cx="34.254217"
     inkscape:cy="19.000386"
     inkscape:window-width="1366"
     inkscape:window-height="699"
     inkscape:window-x="0"
     inkscape:window-y="0"
     inkscape:window-maximized="1"
     inkscape:current-layer="svg16" />
  <g
     id="g8285"
     transform="matrix(1.1249966,0,0,1.1249966,-0.76573017,-1.2337051)">
    <path
       d="m 10.321113,11.444196 c 0.01309,-0.107547 0.04021,-0.199818 0.07731,-0.288349 0.08136,-0.193583 0.170827,-0.384049 0.250629,-0.578568 0.106611,-0.260292 0.3083,-0.368774 0.577321,-0.379373 0.196077,-0.0077 0.38779,0.0116 0.571709,0.08417 0.02463,0.0096 0.03928,0.01187 0.05175,-0.01715 0.01307,-0.02992 0.03397,-0.05643 0.05049,-0.08511 0.02712,-0.048 0.03117,-0.09539 0.0025,-0.146512 -0.03553,-0.063904 -0.0212,-0.1187679 0.03397,-0.148694 0.05424,-0.029303 0.125,-0.013093 0.153683,0.035538 0.03211,0.054864 0.01777,0.118457 -0.04052,0.154616 -0.02899,0.01808 -0.04551,0.03928 -0.04832,0.07263 -9.36e-4,0.01213 -0.0037,0.02493 -0.0084,0.03616 -0.04208,0.101307 -0.05237,0.19327 -0.0025,0.304558 0.05892,0.131546 0.01995,0.277125 -0.02057,0.412727 -0.171762,0.575139 -0.463539,1.082943 -0.866292,1.527156 -0.07949,0.0876 -0.173944,0.153371 -0.298635,0.157111 -0.02463,9.36e-4 -0.03554,0.01871 -0.04925,0.03304 -0.174568,0.183296 -0.369086,0.336043 -0.616909,0.409922 -0.1524354,0.04551 -0.3092347,0.05144 -0.4663455,0.05268 -0.085414,6.24e-4 -0.1571109,-0.03273 -0.2116633,-0.09913 -0.201688,-0.245018 -0.3432125,-0.518716 -0.3958945,-0.834497 -0.00592,-0.03553 -0.017768,-0.07139 -0.00873,-0.115027 0.1165869,0.09415 0.2347311,0.179555 0.367839,0.241278 0.1745677,0.08136 0.3541229,0.130307 0.5455239,0.06827 0.078244,-0.02525 0.1580454,-0.05455 0.1923364,-0.141836 0.0106,-0.02712 0.02431,-0.0134 0.03678,-0.0044 0.05362,0.03865 0.10661,0.07824 0.159916,0.11752 0.07326,0.05424 0.149318,0.102867 0.235666,0.13529 0.145577,0.05487 0.271827,0.02339 0.380308,-0.08416 0.135914,-0.134667 0.240343,-0.294271 0.34259,-0.454499 0.204804,-0.321079 0.368774,-0.662733 0.49627,-1.021533 0.02931,-0.08229 0.03991,-0.168332 0.03865,-0.255928 -0.0019,-0.108787 -0.05361,-0.183295 -0.151501,-0.227561 -0.143083,-0.06484 -0.294582,-0.07607 -0.448576,-0.06764 -0.03304,0.0019 -0.06578,0.0065 -0.09851,0.01053 -0.1914,0.02244 -0.327625,0.118454 -0.413974,0.293648 -0.103182,0.209169 -0.194207,0.423327 -0.292401,0.634366 -0.02899,0.06204 -0.06141,0.12064 -0.12625,0.168646 z m -0.365657,1.049587 c -0.00841,-6.24e-4 -0.016521,-0.0025 -0.024315,-0.0016 -0.033667,0.0047 -0.071698,0.04364 -0.097571,-0.01528 -0.00219,-0.0047 -0.047071,9.36e-4 -0.038031,0.03148 0.010293,0.03523 -0.00312,0.05361 -0.028991,0.07232 -0.034913,0.02525 -0.051124,0.05892 -0.033667,0.10224 0.016833,0.0424 0.054552,0.03896 0.089155,0.03772 0.051435,-0.0016 0.1025589,-0.0075 0.1539935,-0.0081 0.023068,-3.12e-4 0.053619,-0.0019 0.05892,0.03117 0.0044,0.02868 -0.01,0.05205 -0.03367,0.06857 -0.029616,0.02057 -0.065152,0.02432 -0.098819,0.03336 -0.019951,0.0053 -0.051435,0.0019 -0.04146,0.03709 0.010293,0.03585 0.035537,0.01253 0.05424,0.0087 0.042707,-0.0081 0.086661,-0.04707 0.1250025,0.0116 0.0069,0.01053 0.02712,-0.0031 0.03803,-0.0116 0.01496,-0.0112 0.0044,-0.02151 -0.0056,-0.02931 -0.0346,-0.02743 -0.0159,-0.05049 0.0072,-0.07076 0.02993,-0.02619 0.04053,-0.05705 0.02525,-0.09383 -0.01683,-0.04084 -0.05143,-0.04925 -0.09165,-0.04676 -0.053306,0.0031 -0.1069232,0.0072 -0.1602285,0.0059 -0.019015,-3.12e-4 -0.050812,0.0056 -0.053617,-0.02743 -0.00187,-0.02432 0.01184,-0.04396 0.034601,-0.05393 0.020575,-0.0091 0.042707,-0.01496 0.063592,-0.02337 0.026185,-0.01053 0.054864,-0.01995 0.057669,-0.05829 z m -4.0633738,1.887201 c 0,-0.06608 -6.235e-4,-0.132173 3.117e-4,-0.198571 6.235e-4,-0.0452 0.00561,-0.09133 0.066397,-0.09165 0.060787,-3.11e-4 0.066399,0.04396 0.066399,0.09072 0,0.120013 9.352e-4,0.239719 -6.235e-4,0.359734 -3.117e-4,0.03241 0.00779,0.04739 0.042395,0.05205 0.1483824,0.01995 0.2927124,0.01187 0.4292493,-0.05487 0.1561757,-0.07637 0.2512527,-0.299883 0.052059,-0.462293 -0.1122215,-0.09165 -0.2447063,-0.114093 -0.381555,-0.125 -0.1140922,-0.0091 -0.2266262,0.0035 -0.3366662,0.0346 -0.038655,0.01093 -0.076997,0.01715 -0.093207,-0.02961 -0.015275,-0.04489 0.0106,-0.07637 0.0505,-0.09289 0.087284,-0.03647 0.1801788,-0.04271 0.2733855,-0.04489 0.1689564,-0.004 0.334484,0.01589 0.4894128,0.08728 0.1405894,0.06484 0.2428361,0.16428 0.2687095,0.324197 0.028367,0.176437 -0.073568,0.352877 -0.2528113,0.432678 -0.1814257,0.08105 -0.3718916,0.09009 -0.5648511,0.05736 -0.076685,-0.01307 -0.1031816,-0.04956 -0.1087936,-0.12812 -3.117e-4,-0.004 -3.117e-4,-0.0084 -3.117e-4,-0.01253 z m 1.580149,-0.562981 c 0.061099,-3.11e-4 0.1072349,0.03117 0.1502528,0.06733 0.086348,0.07264 0.1502529,0.16397 0.2104165,0.258112 0.08666,0.135913 0.1592929,0.278684 0.2225737,0.426755 0.00811,0.01871 0.014651,0.03865 0.01808,0.0586 0.00811,0.04832 -0.00779,0.08728 -0.056423,0.103187 -0.051435,0.01683 -0.075749,-0.01777 -0.092583,-0.05892 -0.074503,-0.181426 -0.1605399,-0.356927 -0.2705798,-0.519961 -0.034601,-0.05144 -0.072632,-0.100067 -0.1231323,-0.137784 -0.038031,-0.02837 -0.074503,-0.02931 -0.1134682,-0.0016 -0.053305,0.03772 -0.09196,0.08884 -0.1278083,0.141836 -0.1072348,0.157423 -0.1910891,0.327002 -0.2640336,0.502193 -0.018704,0.0452 -0.037096,0.09259 -0.1010002,0.07357 -0.050188,-0.01496 -0.071385,-0.07295 -0.046136,-0.134354 0.094766,-0.229432 0.2076109,-0.4492 0.3700211,-0.639666 0.059228,-0.0692 0.1253149,-0.131547 0.2238207,-0.139343 z"
       fill="#e01a19"
       id="path2"
       style="stroke-width:0.0311727" />
    <path
       d="m 12.91656,14.609169 c 0.0019,0.05673 -0.01589,0.09259 -0.06391,0.10256 -0.04863,0.01 -0.07013,-0.02369 -0.08635,-0.06235 -0.07949,-0.190778 -0.168644,-0.376879 -0.289595,-0.545836 -0.0084,-0.01187 -0.01715,-0.02339 -0.02649,-0.03429 -0.11004,-0.130614 -0.167399,-0.130934 -0.272139,0.0028 -0.131854,0.169268 -0.223508,0.360981 -0.307675,0.556745 -0.0056,0.0134 -0.01027,0.02712 -0.01683,0.03991 -0.01559,0.02961 -0.03803,0.04956 -0.07419,0.04427 -0.03429,-0.0049 -0.05517,-0.02743 -0.06547,-0.0586 -0.0077,-0.024 -0.0072,-0.04895 0.0028,-0.07295 0.09975,-0.236914 0.215093,-0.464788 0.385296,-0.660864 0.004,-0.0047 0.0081,-0.0093 0.01253,-0.01372 0.142459,-0.148382 0.252187,-0.1515 0.394336,-0.0019 0.183608,0.193583 0.297388,0.430185 0.400882,0.672085 0.0056,0.01253 0.0059,0.02775 0.0068,0.03211 z m 0.667722,-0.0072 c 3.1e-4,-0.0012 0.0025,-0.02027 0.0096,-0.03679 0.08916,-0.211975 0.19483,-0.41491 0.337602,-0.596647 0.03959,-0.05049 0.08355,-0.09757 0.137472,-0.13342 0.08385,-0.0558 0.152746,-0.05455 0.235666,0.0025 0.0692,0.04769 0.1222,0.111294 0.170827,0.178309 0.121574,0.168333 0.216651,0.351318 0.297701,0.541783 0.0072,0.01683 0.01372,0.03523 0.01528,0.05299 0.0044,0.04863 -0.0134,0.08728 -0.06297,0.100067 -0.048,0.01213 -0.07107,-0.01995 -0.0876,-0.05953 -0.06671,-0.162723 -0.144018,-0.320145 -0.236601,-0.469463 -0.03709,-0.05985 -0.07731,-0.11752 -0.129053,-0.16584 -0.06453,-0.06016 -0.106294,-0.06172 -0.171139,-9.35e-4 -0.08073,0.07607 -0.135912,0.171139 -0.190466,0.266216 -0.06889,0.120333 -0.12812,0.245019 -0.18049,0.37345 -0.01528,0.03709 -0.03897,0.06671 -0.08385,0.05673 -0.04707,-0.01027 -0.0664,-0.04489 -0.06203,-0.109413 z"
       fill="#8c8a8e"
       id="path4"
       style="fill:#1a1a1a;stroke-width:0.0311727" />
    <path
       d="m 8.5436401,14.736354 c -0.0505,-0.0012 -0.090401,-0.02587 -0.1271842,-0.05767 -0.068268,-0.0586 -0.1200149,-0.13092 -0.1677097,-0.206052 -0.099442,-0.157426 -0.1792442,-0.324823 -0.247201,-0.497833 -0.011227,-0.02899 -0.023068,-0.0586 -0.013716,-0.0904 0.00997,-0.03304 0.027432,-0.06079 0.066397,-0.06484 0.038031,-0.0037 0.055799,0.02057 0.067645,0.05175 0.04146,0.110041 0.087596,0.21821 0.1402776,0.323262 0.052371,0.105361 0.1062989,0.210105 0.183296,0.300506 0.07388,0.08665 0.1228216,0.08853 0.1954534,0.0019 0.1168976,-0.139343 0.1898424,-0.303935 0.2630984,-0.467904 0.02338,-0.05268 0.042707,-0.10724 0.065151,-0.16054 0.012787,-0.03024 0.032108,-0.05487 0.069827,-0.04863 0.037407,0.0059 0.056423,0.0318 0.06328,0.06703 0.00436,0.02244 0.0028,0.0452 -0.00561,0.06703 -0.087284,0.22351 -0.188907,0.439849 -0.3354192,0.632184 -0.031484,0.04115 -0.067021,0.07887 -0.1091042,0.109733 -0.032108,0.02432 -0.067022,0.04147 -0.1084816,0.04052 z"
       fill="#e01a19"
       id="path6"
       style="stroke-width:0.0311727" />
    <path
       d="m 9.9557678,13.923991 c -0.1144043,0.004 -0.2144689,0.01307 -0.3132865,0.03991 -0.043641,0.01187 -0.1044282,0.02805 -0.1197043,-0.03647 -0.013716,-0.05829 0.04146,-0.07357 0.086037,-0.08448 0.2805553,-0.06952 0.556123,-0.06952 0.82265,0.05923 0.03772,0.01808 0.07139,0.04208 0.101001,0.07108 0.07637,0.07451 0.0745,0.16428 -0.0034,0.238159 -0.04489,0.04271 -0.101312,0.06328 -0.158981,0.0798 -0.112534,0.03211 -0.227563,0.03991 -0.343836,0.03616 -0.035849,-0.0012 -0.067957,-0.01253 -0.067646,-0.05549 3.117e-4,-0.04396 0.033043,-0.05237 0.068893,-0.053 0.08884,-0.0016 0.177685,-0.0063 0.264968,-0.02525 0.01808,-0.004 0.03616,-0.0091 0.05331,-0.01621 0.03928,-0.01652 0.07419,-0.03803 0.07669,-0.0876 0.0025,-0.04956 -0.0346,-0.06827 -0.06951,-0.08511 -0.129679,-0.06391 -0.26871,-0.0798 -0.3971414,-0.08073 z m 0.9554462,0.182361 c 0,0.05799 9.35e-4,0.115653 -3.12e-4,0.173632 -0.0025,0.127493 0.05642,0.216028 0.175503,0.262787 0.127186,0.04988 0.258734,0.04676 0.390907,0.02992 0.04769,-0.0059 0.09321,-0.0068 0.101,0.04988 0.0075,0.05549 -0.03492,0.07201 -0.08261,0.07824 -0.119392,0.01589 -0.238472,0.01808 -0.357864,0 -0.240654,-0.03679 -0.383114,-0.192024 -0.391842,-0.436107 -0.0044,-0.121574 -0.0016,-0.243771 -3.12e-4,-0.365657 6.24e-4,-0.06421 0.03398,-0.101627 0.08479,-0.101 0.0505,6.24e-4 0.08011,0.03741 0.08105,0.1038 6.24e-4,0.06827 0,0.136538 -3.12e-4,0.204494 z m 2.439895,0.191089 c 0,0.107547 6.23e-4,0.215093 -3.12e-4,0.322326 -3.12e-4,0.06421 -0.02463,0.09508 -0.07357,0.09289 -0.05829,-0.0028 -0.077,-0.0424 -0.077,-0.09289 -6.23e-4,-0.21291 -0.0021,-0.425819 9.36e-4,-0.63873 6.22e-4,-0.05019 -0.01465,-0.06391 -0.06265,-0.06109 -0.06608,0.0037 -0.132173,0.0016 -0.198571,0 -0.03928,-9.34e-4 -0.08043,-0.01187 -0.08355,-0.05673 -0.0031,-0.04333 0.03772,-0.05455 0.07295,-0.06172 0.01995,-0.004 0.04084,-0.0049 0.06141,-0.0049 0.192336,-3.1e-4 0.384672,-3.1e-4 0.577007,0 0.01871,0 0.03772,-6.22e-4 0.05549,0.0035 0.03429,0.0077 0.07481,0.01559 0.07139,0.06204 -0.0031,0.0424 -0.03896,0.05643 -0.07637,0.05767 -0.06204,0.0025 -0.124067,0.0016 -0.186101,0.0016 -0.08167,3.11e-4 -0.08167,0 -0.08167,0.07887 6.24e-4,0.09913 6.24e-4,0.198259 6.24e-4,0.297388 z"
       fill="#8c8a8e"
       id="path8"
       style="fill:#1a1a1a;stroke-width:0.0311727" />
    <path
       d="m 9.4149198,14.285596 c 0,0.11752 6.234e-4,0.235042 -3.118e-4,0.352563 -3.117e-4,0.06764 -0.025873,0.09944 -0.075439,0.09788 -0.048317,-0.0016 -0.075439,-0.03616 -0.075439,-0.100693 -3.118e-4,-0.237225 -3.118e-4,-0.47445 0,-0.711675 0,-0.06515 0.026808,-0.100693 0.074191,-0.101933 0.048941,-0.0016 0.076685,0.03491 0.076996,0.104733 6.234e-4,0.119707 0,0.239407 0,0.359112 z m 1.7070222,-3.144089 c 0.05954,0.0053 0.11908,0.0093 0.17862,0.01652 0.01434,0.0019 0.03585,0.0021 0.03803,0.02463 0.0022,0.01995 -0.0078,0.03585 -0.02307,0.04801 -0.03117,0.02525 -0.07045,0.02775 -0.106299,0.02587 -0.117522,-0.0056 -0.235043,-0.01403 -0.3482,-0.05049 -0.117522,-0.03772 -0.154617,-0.09664 -0.129055,-0.215404 0.03336,-0.155552 0.129367,-0.278997 0.219768,-0.404311 0.01559,-0.02183 0.03647,-0.01433 0.05549,-0.0037 0.02307,0.0128 0.02089,0.03055 0.01153,0.05268 -0.03398,0.08261 -0.0904,0.152435 -0.132796,0.230055 -0.02276,0.04145 -0.04832,0.08167 -0.0611,0.127814 -0.0187,0.06827 0.0028,0.112227 0.06983,0.134666 0.07388,0.02463 0.150876,0.01777 0.227249,0.01372 z"
       fill="#e01a19"
       id="path10"
       style="stroke-width:0.0311727" />
    <path
       d="m 9.8831352,14.398441 c 0,0.07856 -6.234e-4,0.157111 3.118e-4,0.235666 3.117e-4,0.05049 -0.022444,0.07824 -0.073568,0.07887 -0.052059,9.36e-4 -0.082608,-0.02244 -0.082608,-0.07731 0,-0.159293 6.235e-4,-0.318274 -3.117e-4,-0.477567 -3.117e-4,-0.05393 0.026497,-0.08385 0.077308,-0.08385 0.050188,0 0.080113,0.02775 0.079491,0.08229 -0.00125,0.08043 -6.235e-4,0.161164 -6.231e-4,0.241901 z"
       fill="#8c8a8e"
       id="path12"
       style="fill:#1a1a1a;stroke-width:0.0311727" />
    <path
       d="m 9.955456,12.493783 c -0.00249,0.03803 -0.031172,0.04769 -0.057669,0.0586 -0.020885,0.0084 -0.043019,0.01433 -0.063592,0.02337 -0.022444,0.01 -0.036472,0.02961 -0.034601,0.05393 0.0028,0.03336 0.034601,0.02712 0.053617,0.02743 0.053305,0.0012 0.1069229,-0.0028 0.160228,-0.0059 0.04021,-0.0021 0.07481,0.0059 0.09165,0.04676 0.01496,0.03679 0.0047,0.06764 -0.02525,0.09383 -0.02307,0.02027 -0.04177,0.04333 -0.0072,0.07076 0.01,0.0077 0.02026,0.01808 0.0056,0.02931 -0.01091,0.0081 -0.03117,0.02183 -0.03803,0.01147 -0.03834,-0.0586 -0.082296,-0.01964 -0.125003,-0.01147 -0.018704,0.0037 -0.043953,0.02712 -0.05424,-0.0087 -0.00997,-0.03523 0.021509,-0.0318 0.04146,-0.03709 0.033667,-0.0091 0.069204,-0.0128 0.098817,-0.03336 0.02369,-0.01652 0.03834,-0.03959 0.03367,-0.06859 -0.0053,-0.03304 -0.035848,-0.03148 -0.058916,-0.03117 -0.051435,3.12e-4 -0.1025589,0.0065 -0.1539935,0.0081 -0.034601,9.34e-4 -0.072321,0.0044 -0.089155,-0.03772 -0.017457,-0.04333 -0.00125,-0.077 0.033667,-0.102254 0.025873,-0.01871 0.039277,-0.03709 0.028991,-0.07232 -0.00873,-0.03055 0.03616,-0.03616 0.038031,-0.03148 0.026185,0.0586 0.064216,0.01964 0.097571,0.01528 0.00779,-0.0012 0.015587,6.23e-4 0.024315,0.0012 z"
       fill="#ffffff"
       id="path14"
       style="stroke-width:0.0311727" />
  </g>
</svg>
