<?xml version="1.0" encoding="UTF-8" standalone="no"?>
<svg
   height="60"
   viewBox="5.88 9.87 12.994653 7.3013168"
   width="111.63792"
   version="1.1"
   id="svg16"
   sodipodi:docname="daviplata-logo.svg"
   inkscape:version="1.2 (dc2aedaf03, 2022-05-15)"
   xmlns:inkscape="http://www.inkscape.org/namespaces/inkscape"
   xmlns:sodipodi="http://sodipodi.sourceforge.net/DTD/sodipodi-0.dtd"
   xmlns="http://www.w3.org/2000/svg"
   xmlns:svg="http://www.w3.org/2000/svg">
  <defs
     id="defs20" />
  <sodipodi:namedview
     id="namedview18"
     pagecolor="#505050"
     bordercolor="#eeeeee"
     borderopacity="1"
     inkscape:showpageshadow="0"
     inkscape:pageopacity="0"
     inkscape:pagecheckerboard="0"
     inkscape:deskcolor="#505050"
     showgrid="false"
     inkscape:zoom="2.3354789"
     inkscape:cx="98.480871"
     inkscape:cy="67.00981"
     inkscape:window-width="1366"
     inkscape:window-height="699"
     inkscape:window-x="0"
     inkscape:window-y="0"
     inkscape:window-maximized="1"
     inkscape:current-layer="svg16" />
  <g
     id="g336"
     transform="matrix(0.04675911,0,0,0.04675911,5.2936056,9.3864636)">
    <path
       d="m 153.43,60.84 c 0.42,-3.45 1.29,-6.41 2.48,-9.25 2.61,-6.21 5.48,-12.32 8.04,-18.56 3.42,-8.35 9.89,-11.83 18.52,-12.17 6.29,-0.25 12.44,0.37 18.34,2.7 0.79,0.31 1.26,0.38 1.66,-0.55 0.42,-0.96 1.09,-1.81 1.62,-2.73 0.87,-1.54 1,-3.06 0.08,-4.7 -1.14,-2.05 -0.68,-3.81 1.09,-4.77 1.74,-0.94 4.01,-0.42 4.93,1.14 1.03,1.76 0.57,3.8 -1.3,4.96 -0.93,0.58 -1.46,1.26 -1.55,2.33 -0.03,0.39 -0.12,0.8 -0.27,1.16 -1.35,3.25 -1.68,6.2 -0.08,9.77 1.89,4.22 0.64,8.89 -0.66,13.24 -5.51,18.45 -14.87,34.74 -27.79,48.99 -2.55,2.81 -5.58,4.92 -9.58,5.04 -0.79,0.03 -1.14,0.6 -1.58,1.06 -5.6,5.88 -11.84,10.78 -19.79,13.15 -4.89,1.46 -9.92,1.65 -14.96,1.69 -2.74,0.02 -5.04,-1.05 -6.79,-3.18 -6.47,-7.86 -11.01,-16.64 -12.7,-26.77 -0.19,-1.14 -0.57,-2.29 -0.28,-3.69 3.74,3.02 7.53,5.76 11.8,7.74 5.6,2.61 11.36,4.18 17.5,2.19 2.51,-0.81 5.07,-1.75 6.17,-4.55 0.34,-0.87 0.78,-0.43 1.18,-0.14 1.72,1.24 3.42,2.51 5.13,3.77 2.35,1.74 4.79,3.3 7.56,4.34 4.67,1.76 8.72,0.75 12.2,-2.7 4.36,-4.32 7.71,-9.44 10.99,-14.58 6.57,-10.3 11.83,-21.26 15.92,-32.77 0.94,-2.64 1.28,-5.4 1.24,-8.21 -0.06,-3.49 -1.72,-5.88 -4.86,-7.3 -4.59,-2.08 -9.45,-2.44 -14.39,-2.17 -1.06,0.06 -2.11,0.21 -3.16,0.34 -6.14,0.72 -10.51,3.8 -13.28,9.42 -3.31,6.71 -6.23,13.58 -9.38,20.35 -0.93,1.99 -1.97,3.87 -4.05,5.41 z M 141.7,94.51 c -0.27,-0.02 -0.53,-0.08 -0.78,-0.05 -1.08,0.15 -2.3,1.4 -3.13,-0.49 -0.07,-0.15 -1.51,0.03 -1.22,1.01 0.33,1.13 -0.1,1.72 -0.93,2.32 -1.12,0.81 -1.64,1.89 -1.08,3.28 0.54,1.36 1.75,1.25 2.86,1.21 1.65,-0.05 3.29,-0.24 4.94,-0.26 0.74,-0.01 1.72,-0.06 1.89,1 0.14,0.92 -0.32,1.67 -1.08,2.2 -0.95,0.66 -2.09,0.78 -3.17,1.07 -0.64,0.17 -1.65,0.06 -1.33,1.19 0.33,1.15 1.14,0.4 1.74,0.28 1.37,-0.26 2.78,-1.51 4.01,0.37 0.22,0.34 0.87,-0.1 1.22,-0.37 0.48,-0.36 0.14,-0.69 -0.18,-0.94 -1.11,-0.88 -0.51,-1.62 0.23,-2.27 0.96,-0.84 1.3,-1.83 0.81,-3.01 -0.54,-1.31 -1.65,-1.58 -2.94,-1.5 -1.71,0.1 -3.43,0.23 -5.14,0.19 -0.61,-0.01 -1.63,0.18 -1.72,-0.88 -0.06,-0.78 0.38,-1.41 1.11,-1.73 0.66,-0.29 1.37,-0.48 2.04,-0.75 0.84,-0.34 1.76,-0.64 1.85,-1.87 z M 11.35,155.05 c 0,-2.12 -0.02,-4.24 0.01,-6.37 0.02,-1.45 0.18,-2.93 2.13,-2.94 1.95,-0.01 2.13,1.41 2.13,2.91 0,3.85 0.03,7.69 -0.02,11.54 -0.01,1.04 0.25,1.52 1.36,1.67 4.76,0.64 9.39,0.38 13.77,-1.76 5.01,-2.45 8.06,-9.62 1.67,-14.83 -3.6,-2.94 -7.85,-3.66 -12.24,-4.01 -3.66,-0.29 -7.27,0.11 -10.8,1.11 -1.24,0.35 -2.47,0.55 -2.99,-0.95 -0.49,-1.44 0.34,-2.45 1.62,-2.98 2.8,-1.17 5.78,-1.37 8.77,-1.44 5.42,-0.13 10.73,0.51 15.7,2.8 4.51,2.08 7.79,5.27 8.62,10.4 0.91,5.66 -2.36,11.32 -8.11,13.88 -5.82,2.6 -11.93,2.89 -18.12,1.84 -2.46,-0.42 -3.31,-1.59 -3.49,-4.11 -0.01,-0.13 -0.01,-0.27 -0.01,-0.4 z m 50.69,-18.06 c 1.96,-0.01 3.44,1 4.82,2.16 2.77,2.33 4.82,5.26 6.75,8.28 2.78,4.36 5.11,8.94 7.14,13.69 0.26,0.6 0.47,1.24 0.58,1.88 0.26,1.55 -0.25,2.8 -1.81,3.31 -1.65,0.54 -2.43,-0.57 -2.97,-1.89 -2.39,-5.82 -5.15,-11.45 -8.68,-16.68 -1.11,-1.65 -2.33,-3.21 -3.95,-4.42 -1.22,-0.91 -2.39,-0.94 -3.64,-0.05 -1.71,1.21 -2.95,2.85 -4.1,4.55 -3.44,5.05 -6.13,10.49 -8.47,16.11 -0.6,1.45 -1.19,2.97 -3.24,2.36 -1.61,-0.48 -2.29,-2.34 -1.48,-4.31 3.04,-7.36 6.66,-14.41 11.87,-20.52 1.9,-2.22 4.02,-4.22 7.18,-4.47 z"
       fill="#e01a19"
       id="path2" />
    <path
       d="m 236.69,162.37 c 0.06,1.82 -0.51,2.97 -2.05,3.29 -1.56,0.32 -2.25,-0.76 -2.77,-2 -2.55,-6.12 -5.41,-12.09 -9.29,-17.51 -0.27,-0.38 -0.55,-0.75 -0.85,-1.1 -3.53,-4.19 -5.37,-4.2 -8.73,0.09 -4.23,5.43 -7.17,11.58 -9.87,17.86 -0.18,0.43 -0.33,0.87 -0.54,1.28 -0.5,0.95 -1.22,1.59 -2.38,1.42 -1.1,-0.16 -1.77,-0.88 -2.1,-1.88 -0.25,-0.77 -0.23,-1.57 0.09,-2.34 3.2,-7.6 6.9,-14.91 12.36,-21.2 0.13,-0.15 0.26,-0.3 0.4,-0.44 4.57,-4.76 8.09,-4.86 12.65,-0.06 5.89,6.21 9.54,13.8 12.86,21.56 0.18,0.4 0.19,0.89 0.22,1.03 z m 21.42,-0.23 c 0.01,-0.04 0.08,-0.65 0.31,-1.18 2.86,-6.8 6.25,-13.31 10.83,-19.14 1.27,-1.62 2.68,-3.13 4.41,-4.28 2.69,-1.79 4.9,-1.75 7.56,0.08 2.22,1.53 3.92,3.57 5.48,5.72 3.9,5.4 6.95,11.27 9.55,17.38 0.23,0.54 0.44,1.13 0.49,1.7 0.14,1.56 -0.43,2.8 -2.02,3.21 -1.54,0.39 -2.28,-0.64 -2.81,-1.91 -2.14,-5.22 -4.62,-10.27 -7.59,-15.06 -1.19,-1.92 -2.48,-3.77 -4.14,-5.32 -2.07,-1.93 -3.41,-1.98 -5.49,-0.03 -2.59,2.44 -4.36,5.49 -6.11,8.54 -2.21,3.86 -4.11,7.86 -5.79,11.98 -0.49,1.19 -1.25,2.14 -2.69,1.82 -1.51,-0.33 -2.13,-1.44 -1.99,-3.51 z"
       fill="#8c8a8e"
       id="path4" />
    <path
       d="m 96.41,166.45 c -1.62,-0.04 -2.9,-0.83 -4.08,-1.85 -2.19,-1.88 -3.85,-4.2 -5.38,-6.61 -3.19,-5.05 -5.75,-10.42 -7.93,-15.97 -0.36,-0.93 -0.74,-1.88 -0.44,-2.9 0.32,-1.06 0.88,-1.95 2.13,-2.08 1.22,-0.12 1.79,0.66 2.17,1.66 1.33,3.53 2.81,7 4.5,10.37 1.68,3.38 3.41,6.74 5.88,9.64 2.37,2.78 3.94,2.84 6.27,0.06 3.75,-4.47 6.09,-9.75 8.44,-15.01 0.75,-1.69 1.37,-3.44 2.09,-5.15 0.41,-0.97 1.03,-1.76 2.24,-1.56 1.2,0.19 1.81,1.02 2.03,2.15 0.14,0.72 0.09,1.45 -0.18,2.15 -2.8,7.17 -6.06,14.11 -10.76,20.28 -1.01,1.32 -2.15,2.53 -3.5,3.52 -1.03,0.78 -2.15,1.33 -3.48,1.3 z"
       fill="#e01a19"
       id="path6" />
    <path
       d="m 141.71,140.39 c -3.67,0.13 -6.88,0.42 -10.05,1.28 -1.4,0.38 -3.35,0.9 -3.84,-1.17 -0.44,-1.87 1.33,-2.36 2.76,-2.71 9,-2.23 17.84,-2.23 26.39,1.9 1.21,0.58 2.29,1.35 3.24,2.28 2.45,2.39 2.39,5.27 -0.11,7.64 -1.44,1.37 -3.25,2.03 -5.1,2.56 -3.61,1.03 -7.3,1.28 -11.03,1.16 -1.15,-0.04 -2.18,-0.4 -2.17,-1.78 0.01,-1.41 1.06,-1.68 2.21,-1.7 2.85,-0.05 5.7,-0.2 8.5,-0.81 0.58,-0.13 1.16,-0.29 1.71,-0.52 1.26,-0.53 2.38,-1.22 2.46,-2.81 0.08,-1.59 -1.11,-2.19 -2.23,-2.73 -4.16,-2.05 -8.62,-2.56 -12.74,-2.59 z m 30.65,5.85 c 0,1.86 0.03,3.71 -0.01,5.57 -0.08,4.09 1.81,6.93 5.63,8.43 4.08,1.6 8.3,1.5 12.54,0.96 1.53,-0.19 2.99,-0.22 3.24,1.6 0.24,1.78 -1.12,2.31 -2.65,2.51 -3.83,0.51 -7.65,0.58 -11.48,0 -7.72,-1.18 -12.29,-6.16 -12.57,-13.99 -0.14,-3.9 -0.05,-7.82 -0.01,-11.73 0.02,-2.06 1.09,-3.26 2.72,-3.24 1.62,0.02 2.57,1.2 2.6,3.33 0.02,2.19 0,4.38 -0.01,6.56 z m 78.27,6.13 c 0,3.45 0.02,6.9 -0.01,10.34 -0.01,2.06 -0.79,3.05 -2.36,2.98 -1.87,-0.09 -2.47,-1.36 -2.47,-2.98 -0.02,-6.83 -0.07,-13.66 0.03,-20.49 0.02,-1.61 -0.47,-2.05 -2.01,-1.96 -2.12,0.12 -4.24,0.05 -6.37,0 -1.26,-0.03 -2.58,-0.38 -2.68,-1.82 -0.1,-1.39 1.21,-1.75 2.34,-1.98 0.64,-0.13 1.31,-0.16 1.97,-0.16 6.17,-0.01 12.34,-0.01 18.51,0 0.6,0 1.21,-0.02 1.78,0.11 1.1,0.25 2.4,0.5 2.29,1.99 -0.1,1.36 -1.25,1.81 -2.45,1.85 -1.99,0.08 -3.98,0.05 -5.97,0.05 -2.62,0.01 -2.62,0 -2.62,2.53 0.02,3.18 0.02,6.36 0.02,9.54 z"
       fill="#8c8a8e"
       id="path8" />
    <path
       d="m 124.36,151.99 c 0,3.77 0.02,7.54 -0.01,11.31 -0.01,2.17 -0.83,3.19 -2.42,3.14 -1.55,-0.05 -2.42,-1.16 -2.42,-3.23 -0.01,-7.61 -0.01,-15.22 0,-22.83 0,-2.09 0.86,-3.23 2.38,-3.27 1.57,-0.05 2.46,1.12 2.47,3.36 0.02,3.84 0,7.68 0,11.52 z M 179.12,51.13 c 1.91,0.17 3.82,0.3 5.73,0.53 0.46,0.06 1.15,0.07 1.22,0.79 0.07,0.64 -0.25,1.15 -0.74,1.54 -1,0.81 -2.26,0.89 -3.41,0.83 -3.77,-0.18 -7.54,-0.45 -11.17,-1.62 -3.77,-1.21 -4.96,-3.1 -4.14,-6.91 1.07,-4.99 4.15,-8.95 7.05,-12.97 0.5,-0.7 1.17,-0.46 1.78,-0.12 0.74,0.41 0.67,0.98 0.37,1.69 -1.09,2.65 -2.9,4.89 -4.26,7.38 -0.73,1.33 -1.55,2.62 -1.96,4.1 -0.6,2.19 0.09,3.6 2.24,4.32 2.37,0.79 4.84,0.57 7.29,0.44 z"
       fill="#e01a19"
       id="path10" />
    <path
       d="m 139.38,155.61 c 0,2.52 -0.02,5.04 0.01,7.56 0.01,1.62 -0.72,2.51 -2.36,2.53 -1.67,0.03 -2.65,-0.72 -2.65,-2.48 0,-5.11 0.02,-10.21 -0.01,-15.32 -0.01,-1.73 0.85,-2.69 2.48,-2.69 1.61,0 2.57,0.89 2.55,2.64 -0.04,2.58 -0.02,5.17 -0.02,7.76 z"
       fill="#8c8a8e"
       id="path12" />
    <path
       d="m 141.7,94.51 c -0.08,1.22 -1,1.53 -1.85,1.88 -0.67,0.27 -1.38,0.46 -2.04,0.75 -0.72,0.32 -1.17,0.95 -1.11,1.73 0.09,1.07 1.11,0.87 1.72,0.88 1.71,0.04 3.43,-0.09 5.14,-0.19 1.29,-0.07 2.4,0.19 2.94,1.5 0.48,1.18 0.15,2.17 -0.81,3.01 -0.74,0.65 -1.34,1.39 -0.23,2.27 0.32,0.25 0.65,0.58 0.18,0.94 -0.35,0.26 -1,0.7 -1.22,0.37 -1.23,-1.88 -2.64,-0.63 -4.01,-0.37 -0.6,0.12 -1.41,0.87 -1.74,-0.28 -0.32,-1.13 0.69,-1.02 1.33,-1.19 1.08,-0.29 2.22,-0.41 3.17,-1.07 0.76,-0.53 1.23,-1.27 1.08,-2.2 -0.17,-1.06 -1.15,-1.01 -1.89,-1 -1.65,0.01 -3.29,0.21 -4.94,0.26 -1.11,0.03 -2.32,0.14 -2.86,-1.21 -0.56,-1.39 -0.04,-2.47 1.08,-3.28 0.83,-0.6 1.26,-1.19 0.93,-2.32 -0.28,-0.98 1.16,-1.16 1.22,-1.01 0.84,1.88 2.06,0.63 3.13,0.49 0.25,-0.04 0.5,0.02 0.78,0.04 z"
       fill="#ffffff"
       id="path14" />
  </g>
</svg>
