<?xml version="1.0" encoding="UTF-8" standalone="no"?>
<!-- Created with Inkscape (http://www.inkscape.org/) -->

<svg
   version="1.1"
   id="svg2"
   width="258.84369"
   height="60"
   viewBox="0 0 258.84368 59.999998"
   sodipodi:docname="nequi-logo.svg"
   inkscape:version="1.2 (dc2aedaf03, 2022-05-15)"
   xmlns:inkscape="http://www.inkscape.org/namespaces/inkscape"
   xmlns:sodipodi="http://sodipodi.sourceforge.net/DTD/sodipodi-0.dtd"
   xmlns="http://www.w3.org/2000/svg"
   xmlns:svg="http://www.w3.org/2000/svg">
  <defs
     id="defs6">
    <clipPath
       clipPathUnits="userSpaceOnUse"
       id="clipPath18">
      <path
         d="M 0,850.394 H 850.394 V 0 H 0 Z"
         id="path16" />
    </clipPath>
  </defs>
  <sodipodi:namedview
     id="namedview4"
     pagecolor="#505050"
     bordercolor="#eeeeee"
     borderopacity="1"
     inkscape:showpageshadow="0"
     inkscape:pageopacity="0"
     inkscape:pagecheckerboard="0"
     inkscape:deskcolor="#505050"
     showgrid="false"
     inkscape:zoom="0.47007622"
     inkscape:cx="340.37033"
     inkscape:cy="90.41087"
     inkscape:window-width="1366"
     inkscape:window-height="699"
     inkscape:window-x="0"
     inkscape:window-y="0"
     inkscape:window-maximized="1"
     inkscape:current-layer="g10">
    <inkscape:page
       x="0"
       y="0"
       id="page8"
       width="258.84369"
       height="59.999996" />
  </sodipodi:namedview>
  <g
     id="g10"
     inkscape:groupmode="layer"
     inkscape:label="Page 1"
     transform="matrix(1.3333333,0,0,-1.3333333,-196.83433,652.71761)">
    <g
       id="g12"
       transform="matrix(0.34969907,0,0,0.34969907,96.001161,318.34716)">
      <g
         id="g14"
         clip-path="url(#clipPath18)">
        <g
           id="g20"
           transform="translate(199.8494,369.958)">
          <path
             d="m 0,0 c 0,0 10.5,-18.5 25,-2.75 0.802,0.87 1.654,1.799 2.537,2.763 C 21.342,3.214 1.552,13.468 -16.374,23.064 -7.406,10.357 0,0 0,0"
             style="fill:#ff2879;fill-opacity:1;fill-rule:nonzero;stroke:none"
             id="path22" />
        </g>
        <g
           id="g24"
           transform="translate(175.5516,467.6753)">
          <path
             d="m 0,0 -13.702,-7.468 c 0,0 -15.825,-9.315 -7.719,-24.347 0.441,0.543 0.719,0.847 0.719,0.847 z"
             style="fill:#ff2879;fill-opacity:1;fill-rule:nonzero;stroke:none"
             id="path26" />
        </g>
        <g
           id="g28"
           transform="translate(228.0994,483.7075)">
          <path
             d="m 0,0 c 0,0 -4.67,10.062 -16.25,3.75 l -8.502,-4.633 c 5.411,-2.289 24.44,-10.331 39.495,-16.643 C 6.588,-7.884 0,0 0,0"
             style="fill:#ff2879;fill-opacity:1;fill-rule:nonzero;stroke:none"
             id="path30" />
        </g>
        <g
           id="g32"
           transform="translate(269.5994,435.2075)">
          <path
             d="M 0,0 C -1.023,1.116 -2.216,2.445 -3.536,3.936 -5.477,-3.21 -9.819,-19.229 -13.757,-33.879 -6.557,-25.901 -1.25,-20 -1.25,-20 -1.25,-20 11,-12 0,0"
             style="fill:#ff2879;fill-opacity:1;fill-rule:nonzero;stroke:none"
             id="path34" />
        </g>
        <g
           id="g36"
           transform="translate(154.1307,435.8604)">
          <path
             d="M 0,0 C -2.957,-3.636 -13.422,-18.201 0.719,-26.902 6.475,-30.445 17.503,-36.498 29.345,-42.838 18.955,-28.116 6.47,-10.24 0.969,-1.653 0.61,-1.094 0.293,-0.544 0,0"
             style="fill:#00cbd2;fill-opacity:1;fill-rule:nonzero;stroke:none"
             id="path38" />
        </g>
        <g
           id="g40"
           transform="translate(201.8494,483.4575)">
          <path
             d="M 0,0 C 0,0 -10.623,7.666 -16.75,-1.5 L -26.298,-15.782 1.498,-0.633 C 0.533,-0.226 0,0 0,0"
             style="fill:#00cbd2;fill-opacity:1;fill-rule:nonzero;stroke:none"
             id="path42" />
        </g>
        <g
           id="g44"
           transform="translate(267.0994,442.9575)">
          <path
             d="m 0,0 c 0,0 4.75,11.25 -7.5,16.25 -3.492,1.425 -9.687,4.009 -16.757,6.974 C -16.495,14.045 -7.314,3.276 -1.036,-3.814 -0.383,-1.406 0,0 0,0"
             style="fill:#00cbd2;fill-opacity:1;fill-rule:nonzero;stroke:none"
             id="path46" />
        </g>
        <g
           id="g48"
           transform="translate(229.3494,368.958)">
          <path
             d="m 0,0 c 0,0 15.75,-8.5 19.75,7 1.383,5.358 3.961,15.021 6.743,25.37 C 17.78,22.717 6.297,10.025 -1.963,1.013 -0.698,0.359 0,0 0,0"
             style="fill:#00cbd2;fill-opacity:1;fill-rule:nonzero;stroke:none"
             id="path50" />
        </g>
        <g
           id="g52"
           transform="translate(242.8426,466.1812)">
          <path
             d="M 0,0 C -15.055,6.312 -34.084,14.354 -39.495,16.643 L -67.291,1.494 -87.993,-29.474 c 0,0 -0.278,-0.304 -0.719,-0.847 0.293,-0.544 0.61,-1.094 0.969,-1.653 5.501,-8.587 17.986,-26.463 28.376,-41.185 17.926,-9.596 37.716,-19.85 43.911,-23.051 8.26,9.012 19.743,21.704 28.456,31.357 3.937,14.65 8.28,30.669 10.221,37.815 C 16.942,-19.947 7.762,-9.178 0,0"
             style="fill:#210049;fill-opacity:1;fill-rule:nonzero;stroke:none"
             id="path54" />
        </g>
        <g
           id="g56"
           transform="translate(371.5135,407.8379)">
          <path
             d="m 0,0 -52.027,58.242 c -0.398,0.445 -0.965,0.699 -1.561,0.699 h -0.966 c -1.156,0 -2.092,-0.937 -2.092,-2.093 v -78.965 c 0,-1.155 0.936,-2.093 2.092,-2.093 h 7.374 c 1.156,0 2.093,0.938 2.093,2.093 V 33.996 L 6.494,-23.515 c 0.398,-0.442 0.964,-0.695 1.558,-0.695 h 1.022 c 1.155,0 2.093,0.938 2.093,2.093 v 78.965 c 0,1.156 -0.938,2.093 -2.093,2.093 H 2.093 C 0.937,58.941 0,58.004 0,56.848 Z"
             style="fill:#210049;fill-opacity:1;fill-rule:nonzero;stroke:none"
             id="path58" />
        </g>
        <g
           id="g60"
           transform="translate(420.8611,383.6279)">
          <path
             d="m 0,0 h 39.472 c 1.299,0 2.354,1.055 2.354,2.354 v 6.177 c 0,1.3 -1.055,2.354 -2.354,2.354 H 9.168 v 28.433 h 30.304 c 1.299,0 2.354,1.055 2.354,2.355 v 6.177 c 0,1.299 -1.055,2.354 -2.354,2.354 H 9.168 v 22.062 h 30.64 c 1.299,0 2.354,1.054 2.354,2.354 v 6.177 c 0,1.3 -1.055,2.354 -2.354,2.354 H 0 c -1.166,0 -2.111,-0.945 -2.111,-2.11 V 2.111 C -2.111,0.945 -1.166,0 0,0"
             style="fill:#210049;fill-opacity:1;fill-rule:nonzero;stroke:none"
             id="path62" />
        </g>
        <g
           id="g64"
           transform="translate(564.9598,425.2466)">
          <path
             d="m 0,0 c 0,-8.921 -3.068,-16.607 -9.125,-22.871 l -9.836,12.277 c -0.355,0.443 -0.899,0.691 -1.467,0.669 l -9.765,-0.391 c -1.489,-0.059 -2.256,-1.807 -1.292,-2.943 l 13.529,-15.958 c -4.753,-2.381 -9.99,-3.586 -15.597,-3.586 -9.109,0 -16.991,3.165 -23.426,9.407 -6.422,6.23 -9.678,13.978 -9.678,23.026 0,6.129 1.475,11.766 4.386,16.756 2.911,4.989 7.018,8.999 12.208,11.92 5.198,2.926 10.809,4.411 16.678,4.411 5.834,0 11.466,-1.494 16.739,-4.441 5.264,-2.942 9.4,-6.911 12.292,-11.796 C -1.465,11.6 0,6.055 0,0 m 11.56,-0.07 c 0,12.208 -4.385,22.643 -13.034,31.017 -8.633,8.361 -19.38,12.6 -31.939,12.6 -8.14,0 -15.728,-1.934 -22.552,-5.748 -6.835,-3.82 -12.312,-9.203 -16.278,-16 -3.964,-6.794 -5.974,-14.262 -5.974,-22.196 0,-11.921 4.393,-22.219 13.057,-30.609 8.649,-8.379 19.4,-12.627 31.956,-12.627 8.2,0 15.724,1.885 22.385,5.607 l 4.43,-5.469 c 0.368,-0.455 0.931,-0.709 1.516,-0.685 l 10.712,0.429 c 1.181,0.046 1.772,1.449 0.981,2.328 l -8.897,9.892 c 4.473,4.322 7.854,8.991 10.057,13.901 2.375,5.293 3.58,11.2 3.58,17.56"
             style="fill:#210049;fill-opacity:1;fill-rule:nonzero;stroke:none"
             id="path66" />
        </g>
        <g
           id="g68"
           transform="translate(647.2889,416.8984)">
          <path
             d="m 0,0 c 0,-7.66 -0.427,-10.82 -0.784,-12.119 -0.724,-2.609 -1.866,-4.852 -3.397,-6.67 -1.524,-1.812 -3.454,-3.25 -5.735,-4.275 -4.962,-2.23 -10.577,-2.025 -15.938,0.456 -2.839,1.313 -4.955,2.939 -6.287,4.831 -1.342,1.91 -2.215,4.347 -2.598,7.286 -0.145,0.917 -0.318,3.48 -0.318,10.491 v 47.609 c 0,1.255 -1.016,2.271 -2.271,2.271 h -6.737 c -1.254,0 -2.271,-1.016 -2.271,-2.271 V 0 c 0,-8.371 0.519,-14.046 1.583,-17.34 1.707,-5.404 5.121,-9.802 10.147,-13.07 4.972,-3.235 11.001,-4.875 17.919,-4.875 6.436,0 12.013,1.753 16.578,5.21 4.546,3.442 7.627,7.566 9.156,12.259 1.481,4.545 2.232,10.539 2.232,17.816 v 47.609 c 0,1.255 -1.016,2.271 -2.271,2.271 H 2.271 C 1.017,49.88 0,48.864 0,47.609 Z"
             style="fill:#210049;fill-opacity:1;fill-rule:nonzero;stroke:none"
             id="path70" />
        </g>
        <g
           id="g72"
           transform="translate(691.4891,464.6001)">
          <path
             d="m 0,0 v -78.749 c 0,-1.227 0.995,-2.223 2.224,-2.223 h 6.832 c 1.227,0 2.223,0.996 2.223,2.223 V 0 c 0,1.203 -0.975,2.179 -2.178,2.179 H 2.179 C 0.976,2.179 0,1.203 0,0"
             style="fill:#210049;fill-opacity:1;fill-rule:nonzero;stroke:none"
             id="path74" />
        </g>
      </g>
    </g>
  </g>
</svg>
