<?xml version="1.0" encoding="UTF-8" standalone="no"?>
<svg
   fill="#40c057"
   viewBox="0 0 50.006341 50"
   width="50.00634"
   height="50"
   version="1.1"
   id="svg3656"
   sodipodi:docname="phone-b.svg"
   inkscape:version="1.2 (dc2aedaf03, 2022-05-15)"
   xmlns:inkscape="http://www.inkscape.org/namespaces/inkscape"
   xmlns:sodipodi="http://sodipodi.sourceforge.net/DTD/sodipodi-0.dtd"
   xmlns="http://www.w3.org/2000/svg"
   xmlns:svg="http://www.w3.org/2000/svg">
  <defs
     id="defs3660" />
  <sodipodi:namedview
     id="namedview3658"
     pagecolor="#505050"
     bordercolor="#eeeeee"
     borderopacity="1"
     inkscape:showpageshadow="0"
     inkscape:pageopacity="0"
     inkscape:pagecheckerboard="0"
     inkscape:deskcolor="#505050"
     showgrid="false"
     inkscape:zoom="1.3325"
     inkscape:cx="21.763602"
     inkscape:cy="49.906191"
     inkscape:window-width="1366"
     inkscape:window-height="699"
     inkscape:window-x="0"
     inkscape:window-y="0"
     inkscape:window-maximized="1"
     inkscape:current-layer="svg3656" />
  <path
     fill-rule="evenodd"
     clip-rule="evenodd"
     d="M 42.368267,7.6218903 A 24.083391,23.970354 0 0 0 25.221774,0.54554755 c -13.360741,0 -24.2373053,10.82281345 -24.24270547,24.12621145 0,4.25174 1.11519407,8.401324 3.23487307,12.061774 L 0.77653509,49.233386 13.626973,45.876655 a 24.250806,24.136982 0 0 0 11.584,2.937471 h 0.0098 c 13.358065,0 24.234595,-10.822791 24.239996,-24.126232 A 24.102293,23.989165 0 0 0 42.367251,7.6218903 M 25.220759,44.742467 h -0.0065 A 20.105946,20.011576 0 0 1 14.958742,41.944746 l -0.734467,-0.435395 -7.6254462,1.991483 2.0332764,-7.398869 -0.4779418,-0.7579 A 20.111347,20.016952 0 0 1 5.0731787,24.671759 C 5.0797244,13.615157 14.116272,4.6198898 25.230446,4.6198898 a 20.016838,19.922887 0 0 1 14.243735,5.8803632 20.03574,19.9417 0 0 1 5.894591,14.187641 C 45.362226,35.744539 36.325711,44.742467 25.22233,44.742467 M 36.274393,29.721719 c -0.607546,-0.303729 -3.583221,-1.760388 -4.139438,-1.961928 -0.553577,-0.201606 -0.955917,-0.301101 -1.360929,0.3011 -0.405056,0.602014 -1.566146,1.959212 -1.919873,2.362369 -0.353738,0.403126 -0.707465,0.451498 -1.312327,0.15055 -0.604829,-0.301099 -2.557106,-0.937937 -4.871225,-2.991243 -1.801036,-1.599103 -3.01616,-3.571767 -3.369887,-4.176454 -0.353738,-0.604699 -0.03764,-0.929897 0.26739,-1.2309 0.272625,-0.26871 0.604862,-0.704159 0.907271,-1.056228 0.30242,-0.352058 0.402339,-0.602015 0.604862,-1.005129 0.202599,-0.403158 0.102766,-0.755216 -0.05139,-1.056228 -0.151202,-0.303719 -1.363609,-3.270754 -1.868552,-4.477457 -0.488731,-1.169108 -0.988274,-1.013224 -1.360928,-1.029359 a 26.057263,25.934959 0 0 0 -1.158396,-0.02291 2.2303937,2.2199251 0 0 0 -1.61743,0.752532 c -0.55625,0.604698 -2.11968,2.061357 -2.11968,5.028426 0,2.967057 2.170997,5.834686 2.473418,6.237844 0.302408,0.403114 4.271758,6.490442 10.347307,9.102757 1.447298,0.620834 2.576019,0.991721 3.453574,1.271221 1.450047,0.459581 2.770458,0.392389 3.815461,0.239243 1.163807,-0.171823 3.583211,-1.456658 4.088154,-2.864945 0.504942,-1.408287 0.504942,-2.615 0.353727,-2.867629 -0.151204,-0.252662 -0.558966,-0.405809 -1.161112,-0.706811"
     id="path3584"
     style="fill:#0078ff;fill-opacity:1;stroke:#0078ff;stroke-width:1.09094;stroke-dasharray:none;stroke-opacity:1" />
</svg>
