<?xml version="1.0" encoding="UTF-8" standalone="no"?>
<svg
   fill="#40c057"
   viewBox="0 0 15 15"
   width="15"
   height="15"
   version="1.1"
   id="svg3656"
   sodipodi:docname="phone-small.svg"
   inkscape:version="1.2 (dc2aedaf03, 2022-05-15)"
   xmlns:inkscape="http://www.inkscape.org/namespaces/inkscape"
   xmlns:sodipodi="http://sodipodi.sourceforge.net/DTD/sodipodi-0.dtd"
   xmlns="http://www.w3.org/2000/svg"
   xmlns:svg="http://www.w3.org/2000/svg">
  <defs
     id="defs3660" />
  <sodipodi:namedview
     id="namedview3658"
     pagecolor="#505050"
     bordercolor="#eeeeee"
     borderopacity="1"
     inkscape:showpageshadow="0"
     inkscape:pageopacity="0"
     inkscape:pagecheckerboard="0"
     inkscape:deskcolor="#505050"
     showgrid="false"
     inkscape:zoom="10.66"
     inkscape:cx="20.262664"
     inkscape:cy="21.060038"
     inkscape:window-width="1366"
     inkscape:window-height="699"
     inkscape:window-x="0"
     inkscape:window-y="0"
     inkscape:window-maximized="1"
     inkscape:current-layer="svg3656" />
  <path
     d="m 14.932516,11.954333 -0.07466,-0.224958 C 14.681027,11.203792 14.101405,10.655638 13.568969,10.51122 L 11.598293,9.9728743 c -0.534416,-0.145393 -1.296745,0.05011 -1.6877497,0.4410817 l -0.713194,0.713226 C 6.6053343,10.426751 4.5727913,8.3941763 3.8733343,5.8026663 l 0.713226,-0.713226 c 0.391005,-0.391005 0.586475,-1.152328 0.441082,-1.686744 l -0.537371,-1.971651 c -0.145393,-0.533442 -0.694553,-1.113032 -1.21913,-1.287912 l -0.224957,-0.07564 c -0.525583,-0.17488 -1.275149,0.002 -1.666122,0.392953 L 0.31317834,1.5283053 C 0.12258034,1.7178973 7.6534291e-4,2.2601723 7.6534291e-4,2.2621533 -0.03654466,5.6494103 1.2916323,8.9128713 3.6876403,11.308911 c 2.390131,2.39013 5.641332,3.716363 9.0187797,3.687882 0.0177,0 0.575693,-0.119867 0.766259,-0.309459 l 1.066884,-1.066883 c 0.390973,-0.390973 0.567802,-1.140539 0.392953,-1.666122 z"
     id="path4438"
     style="fill:#ffffff;stroke-width:0.0314363" />
</svg>
