<?xml version="1.0" encoding="UTF-8" standalone="no"?>
<svg
   width="46.666664"
   height="35"
   version="1.1"
   id="svg6404"
   sodipodi:docname="youtube-b.svg"
   inkscape:version="1.2 (dc2aedaf03, 2022-05-15)"
   xmlns:inkscape="http://www.inkscape.org/namespaces/inkscape"
   xmlns:sodipodi="http://sodipodi.sourceforge.net/DTD/sodipodi-0.dtd"
   xmlns="http://www.w3.org/2000/svg"
   xmlns:svg="http://www.w3.org/2000/svg">
  <defs
     id="defs6408" />
  <sodipodi:namedview
     id="namedview6406"
     pagecolor="#505050"
     bordercolor="#eeeeee"
     borderopacity="1"
     inkscape:showpageshadow="0"
     inkscape:pageopacity="0"
     inkscape:pagecheckerboard="0"
     inkscape:deskcolor="#505050"
     showgrid="false"
     inkscape:zoom="1.553125"
     inkscape:cx="33.480885"
     inkscape:cy="33.158954"
     inkscape:window-width="1366"
     inkscape:window-height="699"
     inkscape:window-x="0"
     inkscape:window-y="0"
     inkscape:window-maximized="1"
     inkscape:current-layer="svg6404" />
  <path
     d="M 45.717328,5.502796 A 5.8431999,6.2596276 0 0 0 41.608902,1.091582 C 37.957485,0.0175038 23.349484,1.89655e-5 23.349484,1.89655e-5 c 0,0 -14.6056657,-0.0174825055 -18.2594147,1.0091340345 A 5.9691112,6.3945117 0 0 0 0.97231572,5.450341 C 0.00933034,9.3619852 3.41714e-6,17.475022 3.41714e-6,17.475022 c 0,0 -0.00932750714,8.153004 0.94666368286,12.024681 0.5362875,2.140663 2.110174,3.831709 4.1107588,4.408714 3.6887242,1.074078 18.2570841,1.091564 18.2570841,1.091564 0,0 14.607999,0.0175 18.259416,-1.006635 a 5.8641853,6.2821087 0 0 0 4.120085,-4.403721 c 0.965317,-3.909145 0.972312,-12.019686 0.972312,-12.019686 0,0 0.04664,-8.1554997 -0.948995,-12.067143 z m -27.040535,19.488275 0.01172,-14.987137 12.14108,7.506057 z"
     id="path6402"
     style="fill:#0078ff;fill-opacity:1;stroke-width:2.41334" />
</svg>
