<?xml version="1.0" encoding="UTF-8" standalone="no"?>
<svg
   width="53.333332"
   height="40"
   version="1.1"
   id="svg6404"
   sodipodi:docname="red-youtube.svg"
   inkscape:version="1.2 (dc2aedaf03, 2022-05-15)"
   xmlns:inkscape="http://www.inkscape.org/namespaces/inkscape"
   xmlns:sodipodi="http://sodipodi.sourceforge.net/DTD/sodipodi-0.dtd"
   xmlns="http://www.w3.org/2000/svg"
   xmlns:svg="http://www.w3.org/2000/svg">
  <defs
     id="defs6408" />
  <sodipodi:namedview
     id="namedview6406"
     pagecolor="#505050"
     bordercolor="#eeeeee"
     borderopacity="1"
     inkscape:showpageshadow="0"
     inkscape:pageopacity="0"
     inkscape:pagecheckerboard="0"
     inkscape:deskcolor="#505050"
     showgrid="false"
     inkscape:zoom="12.425"
     inkscape:cx="26.076459"
     inkscape:cy="20.080483"
     inkscape:window-width="1366"
     inkscape:window-height="699"
     inkscape:window-x="0"
     inkscape:window-y="0"
     inkscape:window-maximized="1"
     inkscape:current-layer="svg6404" />
  <path
     d="M 52.248375,6.2889101 A 6.6779426,7.1538602 0 0 0 47.553031,1.2475225 C 43.379983,0.02000453 26.685125,2.1683761e-5 26.685125,2.1683761e-5 c 0,0 -16.6921899,-0.01998283376 -20.8679027,1.153295916239 A 6.821841,7.3080135 0 0 0 1.1112179,6.2289615 C 0.01066304,10.699411 3.904329e-6,19.971453 3.904329e-6,19.971453 c 0,0 -0.010659104329,9.31772 1.081901295671,13.742493 0.6128998,2.446472 2.4116276,4.379096 4.6980102,5.038531 4.2156845,1.227517 20.8652396,1.247501 20.8652396,1.247501 0,0 16.694855,0.02 20.867903,-1.15044 a 6.7019258,7.1795524 0 0 0 4.708669,-5.032824 c 1.103219,-4.467594 1.111214,-13.736783 1.111214,-13.736783 0,0 0.05331,-9.320572 -1.084566,-13.7910209 z m -30.90347,22.2723139 0.01333,-17.128157 13.875519,8.578351 z"
     id="path6402"
     style="fill:#000000;stroke-width:2.75811" />
</svg>
